<svg xmlns="http://www.w3.org/2000/svg" width="24" height="9" fill="none" viewBox="0 0 24 9"><path fill="#fff" d="M5.6 0.9C5.78667 0.9 5.93333 0.96 6.04 1.08C6.15333 1.19333 6.21 1.34667 6.21 1.54V7.41C6.21 7.60333 6.15333 7.76 6.04 7.88C5.92667 8 5.78 8.06 5.6 8.06C5.38667 8.06 5.22333 7.98333 5.11 7.83L1.46 3.08V7.41C1.46 7.60333 1.40667 7.76 1.3 7.88C1.19333 8 1.04667 8.06 0.86 8.06C0.673333 8.06 0.526667 8 0.42 7.88C0.313333 7.76 0.26 7.60333 0.26 7.41V1.54C0.26 1.34667 0.316667 1.19333 0.43 1.08C0.543333 0.96 0.693333 0.9 0.88 0.9C1.08667 0.9 1.24667 0.976666 1.36 1.13L5 5.86V1.54C5 1.34667 5.05333 1.19333 5.16 1.08C5.27333 0.96 5.42 0.9 5.6 0.9ZM8.3507 8C8.15737 8 8.00404 7.94667 7.8907 7.84C7.78404 7.73333 7.7307 7.58333 7.7307 7.39V1.56C7.7307 1.36667 7.78404 1.21667 7.8907 1.11C8.00404 1.00333 8.15737 0.95 8.3507 0.95H11.9607C12.154 0.95 12.304 0.993333 12.4107 1.08C12.5174 1.16667 12.5707 1.29 12.5707 1.45C12.5707 1.61667 12.5174 1.74667 12.4107 1.84C12.304 1.92667 12.154 1.97 11.9607 1.97H8.9907V3.91H11.7607C11.954 3.91 12.104 3.95333 12.2107 4.04C12.3174 4.12667 12.3707 4.25333 12.3707 4.42C12.3707 4.58 12.3174 4.70333 12.2107 4.79C12.104 4.87667 11.954 4.92 11.7607 4.92H8.9907V6.98H11.9607C12.154 6.98 12.304 7.02667 12.4107 7.12C12.5174 7.20667 12.5707 7.33333 12.5707 7.5C12.5707 7.66 12.5174 7.78333 12.4107 7.87C12.304 7.95667 12.154 8 11.9607 8H8.3507ZM22.4594 1.29C22.506 1.15667 22.5794 1.05667 22.6794 0.99C22.786 0.923333 22.9027 0.89 23.0294 0.89C23.1894 0.89 23.326 0.94 23.4394 1.04C23.5594 1.14 23.6194 1.27333 23.6194 1.44C23.6194 1.5 23.6027 1.58667 23.5694 1.7L21.4194 7.65C21.366 7.78333 21.276 7.88667 21.1494 7.96C21.0294 8.03333 20.896 8.07 20.7494 8.07C20.6027 8.07 20.466 8.03333 20.3394 7.96C20.2127 7.88667 20.126 7.78333 20.0794 7.65L18.4194 2.94L16.7294 7.65C16.676 7.78333 16.586 7.88667 16.4594 7.96C16.3394 8.03333 16.206 8.07 16.0594 8.07C15.9127 8.07 15.776 8.03333 15.6494 7.96C15.5294 7.88667 15.446 7.78333 15.3994 7.65L13.2494 1.7C13.216 1.6 13.1994 1.51333 13.1994 1.44C13.1994 1.27333 13.2594 1.14 13.3794 1.04C13.506 0.94 13.6527 0.89 13.8194 0.89C13.9527 0.89 14.0727 0.923333 14.1794 0.99C14.286 1.05667 14.3627 1.15667 14.4094 1.29L16.1094 6.18L17.8594 1.32C17.906 1.18667 17.9827 1.08333 18.0894 1.01C18.196 0.93 18.3127 0.89 18.4394 0.89C18.566 0.89 18.6827 0.93 18.7894 1.01C18.9027 1.08333 18.9827 1.19 19.0294 1.33L20.7294 6.24L22.4594 1.29Z"/></svg>