<svg width="43" height="10" viewBox="0 0 43 10" fill="none" xmlns="http://www.w3.org/2000/svg">
<path d="M7.68 8.028C7.776 8.172 7.824 8.312 7.824 8.448C7.824 8.632 7.748 8.784 7.596 8.904C7.452 9.024 7.28 9.084 7.08 9.084C6.952 9.084 6.828 9.056 6.708 9C6.596 8.936 6.5 8.844 6.42 8.724L4.824 6.3C4.664 6.044 4.492 5.864 4.308 5.76C4.132 5.656 3.9 5.604 3.612 5.604H2.436V8.292C2.436 8.532 2.368 8.724 2.232 8.868C2.096 9.004 1.912 9.072 1.68 9.072C1.448 9.072 1.26 9.004 1.116 8.868C0.98 8.724 0.912 8.532 0.912 8.292V1.272C0.912 1.04 0.976 0.86 1.104 0.732C1.24 0.604 1.424 0.539999 1.656 0.539999H4.656C5.616 0.539999 6.344 0.756 6.84 1.188C7.344 1.612 7.596 2.228 7.596 3.036C7.596 3.692 7.408 4.232 7.032 4.656C6.664 5.072 6.14 5.34 5.46 5.46C5.692 5.516 5.896 5.616 6.072 5.76C6.248 5.904 6.42 6.104 6.588 6.36L7.68 8.028ZM4.44 4.416C5.024 4.416 5.452 4.308 5.724 4.092C5.996 3.868 6.132 3.528 6.132 3.072C6.132 2.608 5.996 2.272 5.724 2.064C5.452 1.848 5.024 1.74 4.44 1.74H2.424V4.416H4.44ZM13.7678 7.392C13.9038 7.392 14.0118 7.444 14.0918 7.548C14.1798 7.652 14.2238 7.792 14.2238 7.968C14.2238 8.216 14.0758 8.424 13.7798 8.592C13.5078 8.744 13.1998 8.868 12.8558 8.964C12.5118 9.052 12.1838 9.096 11.8717 9.096C10.9278 9.096 10.1798 8.824 9.62775 8.28C9.07575 7.736 8.79975 6.992 8.79975 6.048C8.79975 5.448 8.91975 4.916 9.15975 4.452C9.39975 3.988 9.73575 3.628 10.1678 3.372C10.6078 3.116 11.1038 2.988 11.6558 2.988C12.1838 2.988 12.6438 3.104 13.0358 3.336C13.4278 3.568 13.7318 3.896 13.9478 4.32C14.1638 4.744 14.2718 5.244 14.2718 5.82C14.2718 6.164 14.1198 6.336 13.8158 6.336H10.2758C10.3238 6.888 10.4798 7.296 10.7438 7.56C11.0078 7.816 11.3918 7.944 11.8958 7.944C12.1518 7.944 12.3758 7.912 12.5678 7.848C12.7678 7.784 12.9918 7.696 13.2398 7.584C13.4798 7.456 13.6558 7.392 13.7678 7.392ZM11.6918 4.044C11.2838 4.044 10.9558 4.172 10.7078 4.428C10.4678 4.684 10.3238 5.052 10.2758 5.532H12.9878C12.9718 5.044 12.8518 4.676 12.6278 4.428C12.4038 4.172 12.0918 4.044 11.6918 4.044ZM18.0428 2.988C18.8588 2.988 19.4628 3.192 19.8548 3.6C20.2548 4 20.4548 4.612 20.4548 5.436V8.364C20.4548 8.58 20.3908 8.752 20.2628 8.88C20.1348 9 19.9588 9.06 19.7348 9.06C19.5268 9.06 19.3548 8.996 19.2188 8.868C19.0908 8.74 19.0268 8.572 19.0268 8.364V8.1C18.8908 8.412 18.6748 8.656 18.3788 8.832C18.0908 9.008 17.7548 9.096 17.3708 9.096C16.9788 9.096 16.6228 9.016 16.3027 8.856C15.9828 8.696 15.7308 8.476 15.5468 8.196C15.3628 7.916 15.2708 7.604 15.2708 7.26C15.2708 6.828 15.3788 6.488 15.5948 6.24C15.8188 5.992 16.1788 5.812 16.6748 5.7C17.1708 5.588 17.8548 5.532 18.7268 5.532H19.0268V5.256C19.0268 4.864 18.9428 4.58 18.7748 4.404C18.6068 4.22 18.3348 4.128 17.9588 4.128C17.7268 4.128 17.4908 4.164 17.2508 4.236C17.0108 4.3 16.7268 4.396 16.3988 4.524C16.1908 4.628 16.0388 4.68 15.9428 4.68C15.7988 4.68 15.6788 4.628 15.5828 4.524C15.4948 4.42 15.4508 4.284 15.4508 4.116C15.4508 3.98 15.4828 3.864 15.5468 3.768C15.6188 3.664 15.7348 3.568 15.8948 3.48C16.1748 3.328 16.5068 3.208 16.8908 3.12C17.2828 3.032 17.6668 2.988 18.0428 2.988ZM17.6708 8.016C18.0708 8.016 18.3948 7.884 18.6428 7.62C18.8988 7.348 19.0268 7 19.0268 6.576V6.324H18.8108C18.2748 6.324 17.8588 6.348 17.5628 6.396C17.2668 6.444 17.0548 6.528 16.9268 6.648C16.7988 6.768 16.7348 6.932 16.7348 7.14C16.7348 7.396 16.8228 7.608 16.9988 7.776C17.1828 7.936 17.4068 8.016 17.6708 8.016ZM24.5832 9.096C23.9992 9.096 23.4832 8.972 23.0352 8.724C22.5952 8.476 22.2552 8.124 22.0152 7.668C21.7752 7.212 21.6552 6.68 21.6552 6.072C21.6552 5.464 21.7792 4.928 22.0272 4.464C22.2832 3.992 22.6392 3.628 23.0952 3.372C23.5512 3.116 24.0752 2.988 24.6672 2.988C24.9792 2.988 25.2912 3.032 25.6032 3.12C25.9232 3.208 26.2032 3.328 26.4432 3.48C26.6992 3.648 26.8272 3.86 26.8272 4.116C26.8272 4.292 26.7832 4.436 26.6952 4.548C26.6152 4.652 26.5072 4.704 26.3712 4.704C26.2832 4.704 26.1912 4.684 26.0952 4.644C25.9992 4.604 25.9032 4.556 25.8072 4.5C25.6312 4.396 25.4632 4.316 25.3032 4.26C25.1432 4.196 24.9592 4.164 24.7512 4.164C24.2552 4.164 23.8712 4.328 23.5992 4.656C23.3352 4.976 23.2032 5.44 23.2032 6.048C23.2032 6.648 23.3352 7.112 23.5992 7.44C23.8712 7.76 24.2552 7.92 24.7512 7.92C24.9512 7.92 25.1272 7.892 25.2792 7.836C25.4392 7.772 25.6152 7.688 25.8072 7.584C25.9272 7.512 26.0312 7.46 26.1192 7.428C26.2072 7.388 26.2952 7.368 26.3832 7.368C26.5112 7.368 26.6192 7.424 26.7072 7.536C26.7952 7.648 26.8392 7.788 26.8392 7.956C26.8392 8.092 26.8072 8.212 26.7432 8.316C26.6872 8.412 26.5912 8.5 26.4552 8.58C26.2072 8.74 25.9192 8.868 25.5912 8.964C25.2632 9.052 24.9272 9.096 24.5832 9.096ZM30.9218 7.956C31.3218 7.98 31.5218 8.16 31.5218 8.496C31.5218 8.688 31.4418 8.836 31.2818 8.94C31.1298 9.036 30.9098 9.076 30.6217 9.06L30.2978 9.036C28.9538 8.94 28.2818 8.22 28.2818 6.876V4.26H27.6818C27.4658 4.26 27.2978 4.212 27.1778 4.116C27.0657 4.02 27.0097 3.88 27.0097 3.696C27.0097 3.512 27.0657 3.372 27.1778 3.276C27.2978 3.18 27.4658 3.132 27.6818 3.132H28.2818V2.028C28.2818 1.812 28.3498 1.64 28.4858 1.512C28.6218 1.384 28.8058 1.32 29.0378 1.32C29.2618 1.32 29.4418 1.384 29.5778 1.512C29.7138 1.64 29.7818 1.812 29.7818 2.028V3.132H30.8018C31.0178 3.132 31.1818 3.18 31.2938 3.276C31.4138 3.372 31.4738 3.512 31.4738 3.696C31.4738 3.88 31.4138 4.02 31.2938 4.116C31.1818 4.212 31.0178 4.26 30.8018 4.26H29.7818V6.984C29.7818 7.576 30.0538 7.892 30.5978 7.932L30.9218 7.956ZM32.2794 9.072C31.6634 9.096 31.3554 8.884 31.3554 8.436C31.3554 8.244 31.4074 8.1 31.5114 8.004C31.6074 7.9 31.7634 7.84 31.9794 7.824L32.3634 7.8C32.6914 7.784 32.9394 7.68 33.1074 7.488C33.2754 7.296 33.3594 7.004 33.3594 6.612V1.248C33.3594 1.016 33.4274 0.832 33.5634 0.696C33.7074 0.552 33.8954 0.48 34.1274 0.48C34.3674 0.48 34.5554 0.552 34.6914 0.696C34.8354 0.832 34.9074 1.016 34.9074 1.248V6.612C34.9074 8.124 34.1594 8.936 32.6634 9.048L32.2794 9.072ZM39.6642 9.108C39.0482 9.108 38.4642 9.028 37.9122 8.868C37.3682 8.7 36.9242 8.476 36.5802 8.196C36.3962 8.06 36.3042 7.868 36.3042 7.62C36.3042 7.452 36.3522 7.308 36.4482 7.188C36.5522 7.06 36.6722 6.996 36.8082 6.996C36.9522 6.996 37.1162 7.052 37.3002 7.164C37.6442 7.412 38.0042 7.592 38.3802 7.704C38.7562 7.816 39.1722 7.872 39.6282 7.872C40.2122 7.872 40.6602 7.772 40.9722 7.572C41.2842 7.364 41.4402 7.064 41.4402 6.672C41.4402 6.368 41.2922 6.136 40.9962 5.976C40.7082 5.808 40.2242 5.648 39.5442 5.496C38.8402 5.344 38.2682 5.168 37.8282 4.968C37.3882 4.768 37.0562 4.512 36.8322 4.2C36.6082 3.888 36.4962 3.492 36.4962 3.012C36.4962 2.516 36.6362 2.072 36.9162 1.68C37.1962 1.288 37.5842 0.983999 38.0802 0.767999C38.5842 0.543999 39.1482 0.431999 39.7722 0.431999C40.9162 0.431999 41.8482 0.736 42.5682 1.344C42.6722 1.432 42.7442 1.52 42.7842 1.608C42.8322 1.688 42.8562 1.792 42.8562 1.92C42.8562 2.088 42.8042 2.236 42.7002 2.364C42.6042 2.484 42.4882 2.544 42.3522 2.544C42.2722 2.544 42.1962 2.532 42.1242 2.508C42.0602 2.484 41.9722 2.44 41.8602 2.376C41.5322 2.136 41.2122 1.96 40.9002 1.848C40.5962 1.728 40.2202 1.668 39.7722 1.668C39.2282 1.668 38.7962 1.78 38.4762 2.004C38.1642 2.22 38.0082 2.524 38.0082 2.916C38.0082 3.244 38.1482 3.496 38.4282 3.672C38.7082 3.848 39.1842 4.012 39.8562 4.164C40.5682 4.324 41.1442 4.504 41.5842 4.704C42.0322 4.896 42.3722 5.144 42.6042 5.448C42.8442 5.752 42.9642 6.132 42.9642 6.588C42.9642 7.084 42.8242 7.524 42.5442 7.908C42.2722 8.284 41.8842 8.58 41.3802 8.796C40.8842 9.004 40.3122 9.108 39.6642 9.108Z" fill="white"/>
</svg>


